<svg width="19" height="18" viewBox="0 0 19 18" fill="none" xmlns="http://www.w3.org/2000/svg">
<path d="M17.3044 7.36364H10.9735V1.22727C10.9735 0.549816 10.4063 0 9.70735 0H8.86328C8.16434 0 7.5971 0.549816 7.5971 1.22727V7.36364H1.26618C0.567247 7.36364 0 7.91345 0 8.59091V9.40904C0 10.0865 0.567247 10.6363 1.26618 10.6363H7.5971V16.7727C7.5971 17.4501 8.16434 18 8.86328 18H9.70735C10.4063 18 10.9735 17.4501 10.9735 16.7727V10.6363H17.3044C18.0034 10.6363 18.5706 10.0865 18.5706 9.40904V8.59091C18.5706 7.91345 18.0034 7.36364 17.3044 7.36364Z" fill="#735757"/>
</svg>
