<svg width="17" height="15" viewBox="0 0 17 15" fill="none" xmlns="http://www.w3.org/2000/svg">
<path d="M4.27396 14.6967C4.10128 14.6967 3.9298 14.6454 3.78346 14.5447C3.51085 14.3567 3.3835 14.0335 3.4577 13.7216L4.47166 9.47082L1.03295 6.6008C0.780181 6.3908 0.683619 6.05822 0.787396 5.75392C0.891173 5.45018 1.17352 5.23514 1.50782 5.20573L6.05765 4.81262L7.85649 0.806279C7.98913 0.51193 8.2912 0.321838 8.62682 0.321838C8.96244 0.321838 9.26451 0.51193 9.39715 0.805593L11.196 4.81262L15.7451 5.20573C16.0801 5.23446 16.3625 5.45018 16.4662 5.75392C16.57 6.05765 16.4741 6.3908 16.2213 6.6008L12.7826 9.47025L13.7965 13.7209C13.8709 14.0335 13.7434 14.3567 13.4709 14.5441C13.199 14.7316 12.8365 14.746 12.5501 14.5822L8.62682 12.3509L4.7035 14.5835C4.57086 14.6585 4.42308 14.6967 4.27396 14.6967ZM8.62682 11.3897C8.77593 11.3897 8.9236 11.4278 9.05636 11.5028L12.759 13.6104L11.8021 9.59831C11.7338 9.31278 11.8356 9.01465 12.0675 8.82147L15.3144 6.11144L11.0186 5.74018C10.7093 5.71329 10.4433 5.52823 10.3225 5.257L8.62682 1.47623L6.92911 5.25757C6.80958 5.52697 6.54359 5.71203 6.23502 5.73892L1.93868 6.11018L5.18547 8.82021C5.41804 9.01396 5.51977 9.31152 5.45086 9.59774L4.49462 13.6097L8.19728 11.5028C8.32992 11.4278 8.47771 11.3897 8.62682 11.3897ZM6.0229 4.89009C6.0229 4.89009 6.0229 4.89078 6.02218 4.89135L6.0229 4.89009ZM11.2294 4.88826L11.2301 4.88952C11.2301 4.88884 11.2301 4.88884 11.2294 4.88826Z" fill="#735757"/>
</svg>
