<svg width="27" height="22" viewBox="0 0 27 22" fill="none" xmlns="http://www.w3.org/2000/svg">
<g clip-path="url(#clip0)">
<path d="M11.0601 0C5.36911 0 0.738819 4.26184 0.738819 9.5C0.738819 14.7385 5.36911 19 11.0601 19C16.7515 19 21.3814 14.7385 21.3814 9.5C21.3814 4.26184 16.7515 0 11.0601 0ZM11.0601 17.2462C6.41967 17.2462 2.64429 13.7712 2.64429 9.50004C2.64429 5.22885 6.41967 1.75385 11.0601 1.75385C15.7006 1.75385 19.476 5.2288 19.476 9.5C19.476 13.7712 15.7006 17.2462 11.0601 17.2462Z" fill="#735757"/>
<path d="M26.1513 20.4734L20.0994 15.346C19.687 14.9966 19.0192 14.9966 18.6068 15.346C18.1944 15.6951 18.1944 16.2615 18.6068 16.6106L24.6587 21.738C24.8649 21.9126 25.1348 22 25.405 22C25.6749 22 25.9451 21.9126 26.1513 21.738C26.5637 21.3889 26.5637 20.8225 26.1513 20.4734Z" fill="#735757"/>
</g>
<defs>
<clipPath id="clip0">
<rect width="25.9668" height="22" fill="white" transform="translate(0.493752)"/>
</clipPath>
</defs>
</svg>
